<svg xmlns="http://www.w3.org/2000/svg" viewBox="0 0 512 512">
  <rect width="512" height="512" rx="90" fill="#111111"/>
  <path d="M155,460 C75,375 45,240 128,95 C143,178 178,208 188,165 C172,275 218,375 252,438 C218,450 155,460 155,460Z" fill="#3db843"/>
  <path d="M252,460 C175,385 150,268 222,142 C238,218 274,242 284,205 C267,308 304,398 332,440 C293,453 252,460 252,460Z" fill="#2255dd"/>
  <path d="M332,460 C276,385 252,282 308,178 C326,252 358,272 366,242 C352,326 377,412 388,448 C367,456 332,460 332,460Z" fill="#e03535"/>
  <text x="256" y="510" font-family="Arial" font-size="28" fill="#444" text-anchor="middle">LAB</text>
</svg>
